<svg width="40" height="51" viewBox="0 0 40 61" fill="none" xmlns="http://www.w3.org/2000/svg">
<path d="M20.0022 17.9962C18.622 17.9962 17.502 19.1188 17.502 20.4964C17.502 21.874 18.622 22.9966 20.0022 22.9966C21.3823 22.9966 22.5023 21.8739 22.5023 20.4964C22.5023 19.1187 21.3823 17.9962 20.0022 17.9962Z" fill="#9f895d"/>
<path d="M32.7209 5.05749C28.0879 1.23964 21.9998 -0.278081 16.0193 0.879604C7.94856 2.44725 1.62044 8.97027 0.280392 17.1111C-0.514681 21.9166 0.365361 26.6295 2.82313 30.7374L3.84322 32.44C7.10848 37.8831 10.4813 43.5135 13.184 49.304L17.737 59.0574C18.147 59.9374 19.0295 60.5 20.0022 60.5C20.9748 60.5 21.8573 59.9374 22.2674 59.0574L26.3652 50.2766C29.0979 44.4185 32.4708 38.7105 35.736 33.19L37.2562 30.6098C39.0539 27.5519 40.0039 24.0542 40.0039 20.4964C40.004 14.5033 37.3488 8.87534 32.7209 5.05749ZM20.0022 27.9971C15.8668 27.9971 12.5015 24.6317 12.5015 20.4964C12.5015 16.361 15.8668 12.9957 20.0022 12.9957C24.1375 12.9957 27.5029 16.361 27.5029 20.4964C27.5029 24.6317 24.1375 27.9971 20.0022 27.9971Z" fill="#9f895d"/>
</svg>
