<svg width="45" height="45" viewBox="0 0 60 60" fill="none" xmlns="http://www.w3.org/2000/svg">
<path d="M59.853 12.9329C59.6037 11.6727 59.0414 10.4816 58.2211 9.48024C58.0545 9.27 57.8802 9.08297 57.6896 8.89324C56.2302 7.42606 54.2 6.58453 52.1196 6.58453H7.88016C5.77652 6.58453 3.79805 7.40485 2.30918 8.89407C2.12074 9.08203 1.94602 9.27094 1.77305 9.48785C0.95625 10.485 0.396445 11.6745 0.153047 12.9364C0.0513281 13.432 0 13.9455 0 14.465V45.5358C0 46.6167 0.219609 47.6693 0.654961 48.67C1.03172 49.5586 1.60336 50.4011 2.30871 51.1061C2.48637 51.2829 2.66285 51.446 2.85129 51.605C4.26152 52.7729 6.04723 53.4156 7.88016 53.4156H52.1196C53.9644 53.4156 55.7483 52.7705 57.1548 51.5922C57.3428 51.44 57.517 51.2803 57.6913 51.1061C58.3731 50.425 58.915 49.6424 59.3045 48.7794L59.3558 48.6564C59.7831 47.6747 60 46.6255 60 45.5359V14.465C60 13.9523 59.9505 13.4354 59.853 12.9329ZM4.08082 11.6138C4.19227 11.4506 4.33453 11.2832 4.51605 11.1002C5.41711 10.1997 6.61207 9.70406 7.88004 9.70406H52.1195C53.3986 9.70406 54.5939 10.2005 55.485 11.102C55.6389 11.2575 55.7858 11.4301 55.914 11.6026L56.2523 12.0573L32.6391 32.6373C31.9111 33.2755 30.9738 33.6267 29.9996 33.6267C29.0351 33.6267 28.0986 33.2763 27.362 32.6381L3.77227 12.0632L4.08082 11.6138ZM3.13535 45.8101C3.12258 45.7255 3.11965 45.6315 3.11965 45.5358V15.1084L21.4443 31.0941L3.30457 46.9098L3.13535 45.8101ZM54.4804 49.6688C53.7711 50.078 52.9543 50.295 52.1196 50.295H7.88016C7.04496 50.295 6.22852 50.078 5.51977 49.6688L4.7782 49.2389L23.5207 32.9054L25.5748 34.6921C26.8069 35.7618 28.3781 36.3514 29.9999 36.3514C31.6276 36.3514 33.2014 35.7618 34.4327 34.6921L36.486 32.9046L55.222 49.2398L54.4804 49.6688ZM56.8795 45.5358C56.8795 45.6299 56.8778 45.7229 56.8659 45.8058L56.7035 46.9158L38.5561 31.1026L56.8795 15.1161V45.5358Z" fill="#9f895d"/>
</svg>
