<svg width="35" height="33" viewBox="0 0 45 43" fill="none" xmlns="http://www.w3.org/2000/svg">
<path d="M31.3905 27.7655L30.2517 28.8975C30.2517 28.8975 27.5452 31.5887 20.1577 24.243C12.7703 16.8975 15.4767 14.2064 15.4767 14.2064L16.1937 13.4934C17.9602 11.7371 18.1267 8.91727 16.5855 6.8587L13.4331 2.6477C11.5257 0.0997991 7.83989 -0.236776 5.65362 1.93707L1.72962 5.8388C0.645571 6.9167 -0.0808795 8.31397 0.0072205 9.86402C0.232595 13.8295 2.02677 22.3617 12.0384 32.3165C22.6552 42.873 32.617 43.2925 36.6907 42.9127C37.9792 42.7927 39.0997 42.1365 40.0027 41.2385L43.5542 37.7075C45.9515 35.3237 45.2755 31.2372 42.2082 29.57L37.432 26.9735C35.418 25.8787 32.9645 26.2002 31.3905 27.7655Z" fill="#9f895d"/>
</svg>
